Adsworth-72PTG1XT1.ufo
<glyph name="A" format="2">
  <advance width="1490.0"/>
  <outline>
    <contour>
      <point x="1240.0" y="267.0" type="line"/>
      <point x="240.0" y="267.0" type="line"/>
      <point x="240.0" y="507.0" type="line"/>
      <point x="1240.0" y="507.0" type="line"/>
    </contour>
    <contour>
      <point x="900.0" y="1500.0" type="line"/>
      <point x="1540.0" y="0.0" type="line"/>
      <point x="1168.0" y="0.0" type="line"/>
      <point x="759.0" y="900.0" type="line"/>
      <point x="731.0" y="900.0" type="line"/>
      <point x="354.0" y="0.0" type="line"/>
      <point x="-50.0" y="0.0" type="line"/>
      <point x="590.0" y="1500.0" type="line"/>
    </contour>
  </outline>
</glyph>
<glyph name="B" format="2">
  <advance width="1506.0"/>
  <outline>
    <contour>
      <point x="166.0" y="0.0" type="line"/>
      <point x="166.0" y="1500.0" type="line"/>
      <point x="558.0" y="1500.0" type="line"/>
      <point x="558.0" y="0.0" type="line"/>
    </contour>
    <contour>
      <point x="1070.0" y="811.0" type="line"/>
      <point x="1222.0" y="811.0"/>
      <point x="1484.0" y="628.0"/>
      <point x="1484.0" y="428.0" type="qcurve" smooth="yes"/>
      <point x="1484.0" y="418.0" type="line" smooth="yes"/>
      <point x="1484.0" y="222.0"/>
      <point x="1225.0" y="0.0"/>
      <point x="1005.0" y="0.0" type="qcurve" smooth="yes"/>
      <point x="375.0" y="0.0" type="line"/>
      <point x="375.0" y="222.0" type="line"/>
      <point x="846.0" y="222.0" type="line" smooth="yes"/>
      <point x="955.0" y="222.0"/>
      <point x="1095.0" y="345.0"/>
      <point x="1095.0" y="451.0" type="qcurve" smooth="yes"/>
      <point x="1095.0" y="467.0" type="line" smooth="yes"/>
      <point x="1095.0" y="570.0"/>
      <point x="954.0" y="684.0"/>
      <point x="856.0" y="684.0" type="qcurve" smooth="yes"/>
      <point x="375.0" y="684.0" type="line"/>
      <point x="375.0" y="882.0" type="line"/>
      <point x="848.0" y="882.0" type="line" smooth="yes"/>
      <point x="942.0" y="882.0"/>
      <point x="1027.0" y="971.0"/>
      <point x="1027.0" y="1060.0" type="qcurve" smooth="yes"/>
      <point x="1027.0" y="1077.0" type="line" smooth="yes"/>
      <point x="1027.0" y="1172.0"/>
      <point x="933.0" y="1267.0"/>
      <point x="855.0" y="1267.0" type="qcurve" smooth="yes"/>
      <point x="375.0" y="1267.0" type="line"/>
      <point x="375.0" y="1500.0" type="line"/>
      <point x="980.0" y="1500.0" type="line" smooth="yes"/>
      <point x="1187.0" y="1500.0"/>
      <point x="1409.0" y="1298.0"/>
      <point x="1409.0" y="1133.0" type="qcurve" smooth="yes"/>
      <point x="1409.0" y="1122.0" type="line" smooth="yes"/>
      <point x="1409.0" y="961.0"/>
      <point x="1239.0" y="805.0"/>
      <point x="1065.0" y="805.0" type="qcurve"/>
    </contour>
  </outline>
</glyph>
<glyph name="D" format="2">
  <advance width="1749.0"/>
  <outline>
    <contour>
      <point x="124.0" y="0.0" type="line"/>
      <point x="124.0" y="1500.0" type="line"/>
      <point x="520.0" y="1500.0" type="line"/>
      <point x="520.0" y="0.0" type="line"/>
    </contour>
    <contour>
      <point x="919.0" y="261.0" type="line" smooth="yes"/>
      <point x="1040.0" y="261.0"/>
      <point x="1217.0" y="528.0"/>
      <point x="1217.0" y="745.0" type="qcurve" smooth="yes"/>
      <point x="1217.0" y="745.0" type="line" smooth="yes"/>
      <point x="1217.0" y="964.0"/>
      <point x="1038.0" y="1235.0"/>
      <point x="917.0" y="1236.0" type="qcurve" smooth="yes"/>
      <point x="336.0" y="1236.0" type="line"/>
      <point x="336.0" y="1500.0" type="line"/>
      <point x="916.0" y="1500.0" type="line" smooth="yes"/>
      <point x="1231.0" y="1500.0"/>
      <point x="1651.0" y="1095.0"/>
      <point x="1651.0" y="736.0" type="qcurve" smooth="yes"/>
      <point x="1651.0" y="757.0" type="line" smooth="yes"/>
      <point x="1651.0" y="401.0"/>
      <point x="1226.0" y="0.0"/>
      <point x="937.0" y="0.0" type="qcurve" smooth="yes"/>
      <point x="336.0" y="0.0" type="line"/>
      <point x="336.0" y="261.0" type="line"/>
    </contour>
  </outline>
</glyph>
<glyph name="F" format="2">
  <advance width="1242.0"/>
  <outline>
    <contour>
      <point x="124.0" y="0.0" type="line"/>
      <point x="124.0" y="1500.0" type="line"/>
      <point x="534.0" y="1500.0" type="line"/>
      <point x="534.0" y="0.0" type="line"/>
    </contour>
    <contour>
      <point x="1030.0" y="606.0" type="line"/>
      <point x="324.0" y="606.0" type="line"/>
      <point x="324.0" y="895.0" type="line"/>
      <point x="1030.0" y="895.0" type="line"/>
    </contour>
    <contour>
      <point x="1180.0" y="1211.0" type="line"/>
      <point x="324.0" y="1211.0" type="line"/>
      <point x="324.0" y="1500.0" type="line"/>
      <point x="1180.0" y="1500.0" type="line"/>
    </contour>
  </outline>
</glyph>
<glyph name="G" format="2">
  <advance width="1981.0"/>
  <outline>
    <contour>
      <point x="1049.0" y="207.0" type="line" smooth="yes"/>
      <point x="1304.0" y="207.0"/>
      <point x="1522.0" y="362.0"/>
      <point x="1522.0" y="483.0" type="qcurve" smooth="yes"/>
      <point x="1519.0" y="533.0" type="line"/>
      <point x="1080.0" y="532.0" type="line"/>
      <point x="1080.0" y="774.0" type="line"/>
      <point x="1915.0" y="775.0" type="line"/>
      <point x="1912.0" y="610.0" type="line" smooth="yes"/>
      <point x="1905.0" y="302.0"/>
      <point x="1449.0" y="-16.0"/>
      <point x="1063.0" y="-16.0" type="qcurve" smooth="yes"/>
      <point x="1049.0" y="-16.0" type="line" smooth="yes"/>
      <point x="614.0" y="-16.0"/>
      <point x="98.0" y="371.0"/>
      <point x="98.0" y="760.0" type="qcurve" smooth="yes"/>
      <point x="98.0" y="734.0" type="line" smooth="yes"/>
      <point x="98.0" y="1103.0"/>
      <point x="633.0" y="1513.0"/>
      <point x="1027.0" y="1513.0" type="qcurve" smooth="yes"/>
      <point x="1041.0" y="1513.0" type="line" smooth="yes"/>
      <point x="1416.0" y="1513.0"/>
      <point x="1843.0" y="1259.0"/>
      <point x="1865.0" y="1036.0" type="qcurve" smooth="yes"/>
      <point x="1870.0" y="956.0" type="line"/>
      <point x="1506.0" y="956.0" type="line"/>
      <point x="1506.0" y="1008.0" type="line" smooth="yes"/>
      <point x="1515.0" y="1117.0"/>
      <point x="1261.0" y="1270.0"/>
      <point x="1066.0" y="1270.0" type="qcurve" smooth="yes"/>
      <point x="1057.0" y="1270.0" type="line" smooth="yes"/>
      <point x="834.0" y="1270.0"/>
      <point x="537.0" y="1021.0"/>
      <point x="537.0" y="825.0" type="qcurve" smooth="yes"/>
      <point x="537.0" y="669.0" type="line" smooth="yes"/>
      <point x="537.0" y="450.0"/>
      <point x="784.0" y="207.0"/>
      <point x="1044.0" y="207.0" type="qcurve" smooth="yes"/>
    </contour>
  </outline>
</glyph>
<glyph name="H" format="2">
  <advance width="1792.0"/>
  <outline>
    <contour>
      <point x="136.0" y="0.0" type="line"/>
      <point x="136.0" y="1500.0" type="line"/>
      <point x="546.0" y="1500.0" type="line"/>
      <point x="546.0" y="0.0" type="line"/>
    </contour>
    <contour>
      <point x="1246.0" y="0.0" type="line"/>
      <point x="1246.0" y="1500.0" type="line"/>
      <point x="1656.0" y="1500.0" type="line"/>
      <point x="1656.0" y="0.0" type="line"/>
    </contour>
    <contour>
      <point x="1456.0" y="653.0" type="line"/>
      <point x="336.0" y="653.0" type="line"/>
      <point x="336.0" y="936.0" type="line"/>
      <point x="1456.0" y="936.0" type="line"/>
    </contour>
  </outline>
</glyph>
<glyph name="K" format="2">
  <advance width="1330.0"/>
  <outline>
    <contour>
      <point x="124.0" y="0.0" type="line"/>
      <point x="124.0" y="1500.0" type="line"/>
      <point x="534.0" y="1500.0" type="line"/>
      <point x="527.0" y="974.0" type="line"/>
      <point x="691.0" y="1176.0" type="line"/>
      <point x="987.0" y="1500.0" type="line"/>
      <point x="1422.0" y="1500.0" type="line"/>
      <point x="829.0" y="797.0" type="line"/>
      <point x="754.0" y="803.0" type="line"/>
      <point x="527.0" y="564.0" type="line"/>
      <point x="534.0" y="0.0" type="line"/>
    </contour>
    <contour>
      <point x="325.0" y="732.0" type="line"/>
      <point x="605.0" y="983.0" type="line"/>
      <point x="1495.0" y="0.0" type="line"/>
      <point x="981.0" y="0.0" type="line"/>
    </contour>
  </outline>
</glyph>
<glyph name="M" format="2">
  <advance width="2098.0"/>
  <outline>
    <contour>
      <point x="124.0" y="0.0" type="line"/>
      <point x="124.0" y="1500.0" type="line"/>
      <point x="663.0" y="1500.0" type="line"/>
      <point x="1080.0" y="505.0" type="line"/>
      <point x="1085.0" y="505.0" type="line"/>
      <point x="1475.0" y="1500.0" type="line"/>
      <point x="1984.0" y="1500.0" type="line"/>
      <point x="1984.0" y="0.0" type="line"/>
      <point x="1644.0" y="0.0" type="line"/>
      <point x="1644.0" y="1032.0" type="line"/>
      <point x="1247.0" y="0.0" type="line"/>
      <point x="879.0" y="0.0" type="line"/>
      <point x="478.0" y="1042.0" type="line"/>
      <point x="478.0" y="0.0" type="line"/>
    </contour>
  </outline>
</glyph>
<glyph name="N" format="2">
  <advance width="1808.0"/>
  <outline>
    <contour>
      <point x="124.0" y="0.0" type="line"/>
      <point x="124.0" y="1500.0" type="line"/>
      <point x="493.0" y="1500.0" type="line"/>
      <point x="1329.0" y="658.0" type="line"/>
      <point x="1329.0" y="1500.0" type="line"/>
      <point x="1684.0" y="1500.0" type="line"/>
      <point x="1684.0" y="0.0" type="line"/>
      <point x="1300.0" y="0.0" type="line"/>
      <point x="1285.0" y="57.0" type="line"/>
      <point x="479.0" y="880.0" type="line"/>
      <point x="479.0" y="0.0" type="line"/>
    </contour>
  </outline>
</glyph>
<glyph name="O" format="2">
  <advance width="2102.0"/>
  <outline>
    <contour>
      <point x="1035.0" y="-18.0" type="line" smooth="yes"/>
      <point x="595.0" y="-18.0"/>
      <point x="98.0" y="381.0"/>
      <point x="98.0" y="752.0" type="qcurve" smooth="yes"/>
      <point x="98.0" y="726.0" type="line" smooth="yes"/>
      <point x="98.0" y="1110.0"/>
      <point x="615.0" y="1513.0"/>
      <point x="1042.0" y="1513.0" type="qcurve" smooth="yes"/>
      <point x="1052.0" y="1513.0" type="line" smooth="yes"/>
      <point x="1477.0" y="1513.0"/>
      <point x="2004.0" y="1117.0"/>
      <point x="2004.0" y="746.0" type="qcurve" smooth="yes"/>
      <point x="2004.0" y="744.0" type="line" smooth="yes"/>
      <point x="2004.0" y="378.0"/>
      <point x="1478.0" y="-18.0"/>
      <point x="1045.0" y="-18.0" type="qcurve" smooth="yes"/>
    </contour>
    <contour>
      <point x="1054.0" y="232.0" type="line" smooth="yes"/>
      <point x="1271.0" y="232.0"/>
      <point x="1557.0" y="397.0"/>
      <point x="1557.0" y="678.0" type="qcurve" smooth="yes"/>
      <point x="1557.0" y="803.0" type="line" smooth="yes"/>
      <point x="1557.0" y="1087.0"/>
      <point x="1274.0" y="1258.0"/>
      <point x="1054.0" y="1258.0" type="qcurve" smooth="yes"/>
      <point x="1046.0" y="1258.0" type="line" smooth="yes"/>
      <point x="814.0" y="1258.0"/>
      <point x="545.0" y="1103.0"/>
      <point x="545.0" y="813.0" type="qcurve" smooth="yes"/>
      <point x="545.0" y="666.0" type="line" smooth="yes"/>
      <point x="545.0" y="398.0"/>
      <point x="780.0" y="232.0"/>
      <point x="1046.0" y="232.0" type="qcurve" smooth="yes"/>
    </contour>
  </outline>
</glyph>
<glyph name="S" format="2">
  <advance width="1559.0"/>
  <outline>
    <contour>
      <point x="1135.0" y="394.0" type="line" smooth="yes"/>
      <point x="1135.0" y="430.0"/>
      <point x="983.0" y="536.0"/>
      <point x="650.0" y="597.0" type="qcurve" smooth="yes"/>
      <point x="260.0" y="675.0"/>
      <point x="62.0" y="924.0"/>
      <point x="62.0" y="1075.0" type="qcurve" smooth="yes"/>
      <point x="62.0" y="1093.0" type="line" smooth="yes"/>
      <point x="62.0" y="1268.0"/>
      <point x="398.0" y="1513.0"/>
      <point x="753.0" y="1513.0" type="qcurve" smooth="yes"/>
      <point x="764.0" y="1513.0" type="line" smooth="yes"/>
      <point x="1145.0" y="1513.0"/>
      <point x="1467.0" y="1338.0"/>
      <point x="1455.0" y="1144.0" type="qcurve" smooth="yes"/>
      <point x="1455.0" y="1095.0" type="line"/>
      <point x="1096.0" y="1095.0" type="line"/>
      <point x="1096.0" y="1182.0" type="line" smooth="yes"/>
      <point x="1096.0" y="1229.0"/>
      <point x="975.0" y="1251.0"/>
      <point x="760.0" y="1251.0" type="qcurve" smooth="yes"/>
      <point x="756.0" y="1251.0" type="line" smooth="yes"/>
      <point x="578.0" y="1251.0"/>
      <point x="438.0" y="1168.0"/>
      <point x="438.0" y="1143.0" type="qcurve" smooth="yes"/>
      <point x="438.0" y="1104.0" type="line" smooth="yes"/>
      <point x="438.0" y="1089.0"/>
      <point x="562.0" y="980.0"/>
      <point x="884.0" y="951.0" type="qcurve" smooth="yes"/>
      <point x="1232.0" y="918.0"/>
      <point x="1504.0" y="665.0"/>
      <point x="1504.0" y="458.0" type="qcurve" smooth="yes"/>
      <point x="1504.0" y="461.0" type="line" smooth="yes"/>
      <point x="1504.0" y="266.0"/>
      <point x="1154.0" y="-18.0"/>
      <point x="784.0" y="-18.0" type="qcurve" smooth="yes"/>
      <point x="780.0" y="-18.0" type="line" smooth="yes"/>
      <point x="389.0" y="-18.0"/>
      <point x="44.0" y="211.0"/>
      <point x="47.0" y="386.0" type="qcurve" smooth="yes"/>
      <point x="47.0" y="454.0" type="line"/>
      <point x="385.0" y="452.0" type="line"/>
      <point x="385.0" y="405.0" type="line" smooth="yes"/>
      <point x="385.0" y="323.0"/>
      <point x="559.0" y="228.0"/>
      <point x="770.0" y="228.0" type="qcurve" smooth="yes"/>
      <point x="776.0" y="228.0" type="line" smooth="yes"/>
      <point x="1003.0" y="228.0"/>
      <point x="1135.0" y="341.0"/>
      <point x="1135.0" y="392.0" type="qcurve" smooth="yes"/>
    </contour>
  </outline>
</glyph>
<glyph name="T" format="2">
  <advance width="1402.0"/>
  <outline>
    <contour>
      <point x="506.0" y="0.0" type="line"/>
      <point x="506.0" y="1460.0" type="line"/>
      <point x="901.0" y="1460.0" type="line"/>
      <point x="901.0" y="0.0" type="line"/>
    </contour>
    <contour>
      <point x="1406.0" y="1211.0" type="line"/>
      <point x="-4.0" y="1211.0" type="line"/>
      <point x="-4.0" y="1500.0" type="line"/>
      <point x="1406.0" y="1500.0" type="line"/>
    </contour>
  </outline>
</glyph>
<glyph name="V" format="2">
  <advance width="1500.0"/>
  <outline>
    <contour>
      <point x="555.0" y="0.0" type="line"/>
      <point x="-60.0" y="1500.0" type="line"/>
      <point x="291.0" y="1500.0" type="line"/>
      <point x="765.0" y="556.0" type="line"/>
      <point x="1222.0" y="1500.0" type="line"/>
      <point x="1580.0" y="1500.0" type="line"/>
      <point x="915.0" y="0.0" type="line"/>
    </contour>
  </outline>
</glyph>
<glyph name="W" format="2">
  <advance width="2290.0"/>
  <outline>
    <contour>
      <point x="505.0" y="0.0" type="line"/>
      <point x="-20.0" y="1500.0" type="line"/>
      <point x="369.0" y="1500.0" type="line"/>
      <point x="725.0" y="695.0" type="line"/>
      <point x="1003.0" y="1500.0" type="line"/>
      <point x="1293.0" y="1500.0" type="line"/>
      <point x="1569.0" y="703.0" type="line"/>
      <point x="1905.0" y="1500.0" type="line"/>
      <point x="2260.0" y="1500.0" type="line"/>
      <point x="1745.0" y="0.0" type="line"/>
      <point x="1454.0" y="0.0" type="line"/>
      <point x="1135.0" y="751.0" type="line"/>
      <point x="1119.0" y="751.0" type="line"/>
      <point x="796.0" y="0.0" type="line"/>
    </contour>
  </outline>
</glyph>
<glyph name="Y" format="2">
  <advance width="1550.0"/>
  <outline>
    <contour>
      <point x="635.0" y="400.0" type="line"/>
      <point x="-100.0" y="1500.0" type="line"/>
      <point x="324.0" y="1500.0" type="line"/>
      <point x="771.0" y="891.0" type="line"/>
      <point x="1221.0" y="1500.0" type="line"/>
      <point x="1650.0" y="1500.0" type="line"/>
      <point x="913.0" y="400.0" type="line"/>
    </contour>
    <contour>
      <point x="577.0" y="0.0" type="line"/>
      <point x="577.0" y="570.0" type="line"/>
      <point x="975.0" y="570.0" type="line"/>
      <point x="975.0" y="0.0" type="line"/>
    </contour>
  </outline>
</glyph>
<glyph name="Z" format="2">
  <advance width="1379.0"/>
  <outline>
    <contour>
      <point x="1330.0" y="0.0" type="line"/>
      <point x="14.0" y="0.0" type="line"/>
      <point x="9.0" y="289.0" type="line"/>
      <point x="878.0" y="1211.0" type="line"/>
      <point x="44.0" y="1211.0" type="line"/>
      <point x="44.0" y="1500.0" type="line"/>
      <point x="1310.0" y="1500.0" type="line"/>
      <point x="1310.0" y="1216.0" type="line"/>
      <point x="443.0" y="289.0" type="line"/>
      <point x="1330.0" y="289.0" type="line"/>
    </contour>
  </outline>
</glyph>
<glyph name="a" format="2">
  <advance width="1313.0"/>
  <outline>
    <contour>
      <point x="112.0" y="902.0" type="line"/>
      <point x="142.0" y="915.0"/>
      <point x="441.0" y="1014.0"/>
      <point x="657.0" y="1014.0" type="qcurve" smooth="yes"/>
      <point x="924.0" y="1014.0"/>
      <point x="1205.0" y="792.0"/>
      <point x="1209.0" y="590.0" type="qcurve" smooth="yes"/>
      <point x="1210.0" y="0.0" type="line"/>
      <point x="874.0" y="0.0" type="line"/>
      <point x="874.0" y="533.0" type="line" smooth="yes"/>
      <point x="874.0" y="659.0"/>
      <point x="697.0" y="811.0"/>
      <point x="514.0" y="811.0" type="qcurve" smooth="yes"/>
      <point x="377.0" y="811.0"/>
      <point x="156.0" y="757.0"/>
      <point x="139.0" y="751.0" type="qcurve"/>
    </contour>
    <contour>
      <point x="912.0" y="150.0" type="line"/>
      <point x="903.0" y="101.0"/>
      <point x="633.0" y="-25.0"/>
      <point x="485.0" y="-25.0" type="qcurve" smooth="yes"/>
      <point x="269.0" y="-25.0"/>
      <point x="-5.0" y="150.0"/>
      <point x="-5.0" y="309.0" type="qcurve" smooth="yes"/>
      <point x="-5.0" y="470.0"/>
      <point x="251.0" y="650.0"/>
      <point x="521.0" y="650.0" type="qcurve" smooth="yes"/>
      <point x="650.0" y="650.0"/>
      <point x="888.0" y="614.0"/>
      <point x="913.0" y="602.0" type="qcurve"/>
      <point x="913.0" y="490.0" type="line"/>
      <point x="949.0" y="487.0"/>
      <point x="687.0" y="532.0"/>
      <point x="644.0" y="532.0" type="qcurve" smooth="yes"/>
      <point x="491.0" y="532.0"/>
      <point x="291.0" y="439.0"/>
      <point x="291.0" y="339.0" type="qcurve" smooth="yes"/>
      <point x="291.0" y="226.0"/>
      <point x="486.0" y="141.0"/>
      <point x="651.0" y="141.0" type="qcurve" smooth="yes"/>
      <point x="713.0" y="141.0"/>
      <point x="933.0" y="238.0"/>
      <point x="912.0" y="245.0" type="qcurve"/>
    </contour>
  </outline>
</glyph>
<glyph name="at" format="2">
  <advance width="2038.0"/>
  <outline>
    <contour>
      <point x="1272.0" y="741.0" type="qcurve" smooth="yes"/>
      <point x="1267.0" y="712.0" type="line" smooth="yes"/>
      <point x="1235.0" y="525.0"/>
      <point x="1043.0" y="301.0"/>
      <point x="877.0" y="301.0" type="qcurve" smooth="yes"/>
      <point x="871.0" y="301.0" type="line" smooth="yes"/>
      <point x="675.0" y="301.0"/>
      <point x="498.0" y="570.0"/>
      <point x="540.0" y="771.0" type="qcurve" smooth="yes"/>
      <point x="546.0" y="800.0" type="line" smooth="yes"/>
      <point x="581.0" y="969.0"/>
      <point x="811.0" y="1171.0"/>
      <point x="989.0" y="1171.0" type="qcurve" smooth="yes"/>
      <point x="996.0" y="1171.0" type="line" smooth="yes"/>
      <point x="1136.0" y="1171.0"/>
      <point x="1304.0" y="927.0"/>
    </contour>
    <contour>
      <point x="1178.0" y="724.0" type="line" smooth="yes"/>
      <point x="1201.0" y="833.0"/>
      <point x="1100.0" y="1029.0"/>
      <point x="1029.0" y="1029.0" type="qcurve" smooth="yes"/>
      <point x="1025.0" y="1029.0" type="line" smooth="yes"/>
      <point x="962.0" y="1029.0"/>
      <point x="800.0" y="869.0"/>
      <point x="781.0" y="766.0" type="qcurve" smooth="yes"/>
      <point x="777.0" y="750.0" type="line" smooth="yes"/>
      <point x="749.0" y="613.0"/>
      <point x="837.0" y="412.0"/>
      <point x="957.0" y="412.0" type="qcurve" smooth="yes"/>
      <point x="961.0" y="412.0" type="line" smooth="yes"/>
      <point x="1029.0" y="412.0"/>
      <point x="1153.0" y="599.0"/>
      <point x="1175.0" y="707.0" type="qcurve" smooth="yes"/>
    </contour>
    <contour>
      <point x="1177.0" y="614.0" type="qcurve" smooth="yes"/>
      <point x="1268.0" y="1125.0" type="line"/>
      <point x="1467.0" y="1125.0" type="line"/>
      <point x="1376.0" y="634.0" type="line" smooth="yes"/>
      <point x="1362.0" y="554.0"/>
      <point x="1409.0" y="464.0"/>
      <point x="1472.0" y="464.0" type="qcurve" smooth="yes"/>
      <point x="1616.0" y="464.0"/>
      <point x="1822.0" y="620.0"/>
      <point x="1822.0" y="784.0" type="qcurve" smooth="yes"/>
      <point x="1822.0" y="1037.0"/>
      <point x="1419.0" y="1384.0"/>
      <point x="1048.0" y="1384.0" type="qcurve" smooth="yes"/>
      <point x="685.0" y="1384.0"/>
      <point x="234.0" y="1008.0"/>
      <point x="234.0" y="700.0" type="qcurve" smooth="yes"/>
      <point x="234.0" y="370.0"/>
      <point x="678.0" y="10.0"/>
      <point x="1030.0" y="10.0" type="qcurve" smooth="yes"/>
      <point x="1285.0" y="10.0"/>
      <point x="1652.0" y="145.0"/>
      <point x="1710.0" y="197.0" type="qcurve"/>
      <point x="1794.0" y="98.0" type="line"/>
      <point x="1719.0" y="33.0"/>
      <point x="1352.0" y="-102.0"/>
      <point x="1022.0" y="-102.0" type="qcurve" smooth="yes"/>
      <point x="600.0" y="-102.0"/>
      <point x="40.0" y="322.0"/>
      <point x="40.0" y="715.0" type="qcurve" smooth="yes"/>
      <point x="40.0" y="1077.0"/>
      <point x="611.0" y="1524.0"/>
      <point x="1046.0" y="1524.0" type="qcurve" smooth="yes"/>
      <point x="1480.0" y="1524.0"/>
      <point x="2003.0" y="1117.0"/>
      <point x="2003.0" y="806.0" type="qcurve" smooth="yes"/>
      <point x="2003.0" y="618.0"/>
      <point x="1686.0" y="319.0"/>
      <point x="1407.0" y="319.0" type="qcurve" smooth="yes"/>
      <point x="1271.0" y="319.0"/>
      <point x="1166.0" y="472.0"/>
    </contour>
  </outline>
</glyph>
<glyph name="b" format="2">
  <advance width="1543.0"/>
  <outline>
    <contour>
      <point x="122.0" y="0.0" type="line"/>
      <point x="122.0" y="1500.0" type="line"/>
      <point x="468.0" y="1500.0" type="line"/>
      <point x="468.0" y="0.0" type="line"/>
    </contour>
    <contour>
      <point x="470.0" y="779.0" type="line" smooth="yes"/>
      <point x="470.0" y="923.0"/>
      <point x="729.0" y="1012.0"/>
      <point x="920.0" y="1012.0" type="qcurve" smooth="yes"/>
      <point x="935.0" y="1012.0" type="line" smooth="yes"/>
      <point x="1191.0" y="1012.0"/>
      <point x="1486.0" y="719.0"/>
      <point x="1486.0" y="482.0" type="qcurve" smooth="yes"/>
      <point x="1486.0" y="499.0" type="line" smooth="yes"/>
      <point x="1486.0" y="268.0"/>
      <point x="1185.0" y="-28.0"/>
      <point x="950.0" y="-28.0" type="qcurve" smooth="yes"/>
      <point x="941.0" y="-28.0" type="line" smooth="yes"/>
      <point x="734.0" y="-28.0"/>
      <point x="470.0" y="30.0"/>
      <point x="470.0" y="180.0" type="qcurve" smooth="yes"/>
    </contour>
    <contour>
      <point x="489.0" y="599.0" type="qcurve" smooth="yes"/>
      <point x="489.0" y="392.0" type="line" smooth="yes"/>
      <point x="489.0" y="265.0"/>
      <point x="673.0" y="169.0"/>
      <point x="785.0" y="169.0" type="qcurve" smooth="yes"/>
      <point x="797.0" y="169.0" type="line" smooth="yes"/>
      <point x="952.0" y="169.0"/>
      <point x="1154.0" y="281.0"/>
      <point x="1154.0" y="402.0" type="qcurve" smooth="yes"/>
      <point x="1154.0" y="569.0" type="line" smooth="yes"/>
      <point x="1154.0" y="696.0"/>
      <point x="941.0" y="807.0"/>
      <point x="789.0" y="807.0" type="qcurve" smooth="yes"/>
      <point x="779.0" y="807.0" type="line" smooth="yes"/>
      <point x="674.0" y="807.0"/>
      <point x="489.0" y="695.0"/>
    </contour>
  </outline>
</glyph>
<glyph name="braceleft" format="2">
  <advance width="858.0"/>
  <outline>
    <contour>
      <point x="8.0" y="482.0" type="line"/>
      <point x="238.0" y="480.0"/>
      <point x="276.0" y="421.0"/>
      <point x="276.0" y="377.0" type="qcurve" smooth="yes"/>
      <point x="276.0" y="342.0"/>
      <point x="242.0" y="273.0"/>
      <point x="219.0" y="238.0" type="qcurve" smooth="yes"/>
      <point x="195.0" y="201.0"/>
      <point x="146.0" y="87.0"/>
      <point x="146.0" y="-30.0" type="qcurve" smooth="yes"/>
      <point x="146.0" y="-167.0"/>
      <point x="481.0" y="-378.0"/>
      <point x="792.0" y="-401.0" type="qcurve"/>
      <point x="828.0" y="-129.0" type="line"/>
      <point x="597.0" y="-121.0"/>
      <point x="445.0" y="-25.0"/>
      <point x="445.0" y="5.0" type="qcurve" smooth="yes"/>
      <point x="445.0" y="90.0"/>
      <point x="466.0" y="184.0"/>
      <point x="496.0" y="234.0" type="qcurve" smooth="yes"/>
      <point x="530.0" y="287.0"/>
      <point x="607.0" y="394.0"/>
      <point x="607.0" y="493.0" type="qcurve" smooth="yes"/>
      <point x="607.0" y="516.0"/>
      <point x="461.0" y="597.0"/>
      <point x="381.0" y="611.0" type="qcurve"/>
      <point x="475.0" y="634.0"/>
      <point x="612.0" y="716.0"/>
      <point x="612.0" y="727.0" type="qcurve" smooth="yes"/>
      <point x="612.0" y="810.0"/>
      <point x="539.0" y="910.0"/>
      <point x="501.0" y="950.0" type="qcurve" smooth="yes"/>
      <point x="464.0" y="990.0"/>
      <point x="430.0" y="1084.0"/>
      <point x="430.0" y="1162.0" type="qcurve" smooth="yes"/>
      <point x="430.0" y="1197.0"/>
      <point x="602.0" y="1292.0"/>
      <point x="841.0" y="1294.0" type="qcurve"/>
      <point x="820.0" y="1526.0" type="line"/>
      <point x="560.0" y="1542.0"/>
      <point x="148.0" y="1399.0"/>
      <point x="148.0" y="1279.0" type="qcurve" smooth="yes"/>
      <point x="148.0" y="1176.0"/>
      <point x="196.0" y="1047.0"/>
      <point x="221.0" y="1005.0" type="qcurve" smooth="yes"/>
      <point x="246.0" y="963.0"/>
      <point x="280.0" y="884.0"/>
      <point x="280.0" y="847.0" type="qcurve" smooth="yes"/>
      <point x="280.0" y="799.0"/>
      <point x="240.0" y="737.0"/>
      <point x="5.0" y="720.0" type="qcurve"/>
    </contour>
  </outline>
</glyph>
<glyph name="braceright" format="2">
  <advance width="858.0"/>
  <outline>
    <contour>
      <point x="849.0" y="482.0" type="qcurve"/>
      <point x="852.0" y="720.0" type="line"/>
      <point x="617.0" y="737.0"/>
      <point x="577.0" y="799.0"/>
      <point x="577.0" y="847.0" type="qcurve" smooth="yes"/>
      <point x="577.0" y="884.0"/>
      <point x="611.0" y="963.0"/>
      <point x="636.0" y="1005.0" type="qcurve" smooth="yes"/>
      <point x="661.0" y="1047.0"/>
      <point x="709.0" y="1176.0"/>
      <point x="709.0" y="1279.0" type="qcurve" smooth="yes"/>
      <point x="709.0" y="1399.0"/>
      <point x="297.0" y="1542.0"/>
      <point x="37.0" y="1526.0" type="qcurve"/>
      <point x="16.0" y="1284.0" type="line"/>
      <point x="255.0" y="1282.0"/>
      <point x="427.0" y="1187.0"/>
      <point x="427.0" y="1152.0" type="qcurve" smooth="yes"/>
      <point x="427.0" y="1074.0"/>
      <point x="393.0" y="980.0"/>
      <point x="356.0" y="940.0" type="qcurve" smooth="yes"/>
      <point x="318.0" y="900.0"/>
      <point x="245.0" y="800.0"/>
      <point x="245.0" y="717.0" type="qcurve" smooth="yes"/>
      <point x="245.0" y="706.0"/>
      <point x="382.0" y="624.0"/>
      <point x="476.0" y="601.0" type="qcurve"/>
      <point x="396.0" y="587.0"/>
      <point x="250.0" y="506.0"/>
      <point x="250.0" y="483.0" type="qcurve" smooth="yes"/>
      <point x="250.0" y="384.0"/>
      <point x="327.0" y="277.0"/>
      <point x="361.0" y="224.0" type="qcurve" smooth="yes"/>
      <point x="391.0" y="174.0"/>
      <point x="412.0" y="80.0"/>
      <point x="412.0" y="-5.0" type="qcurve" smooth="yes"/>
      <point x="412.0" y="-35.0"/>
      <point x="260.0" y="-131.0"/>
      <point x="29.0" y="-139.0" type="qcurve"/>
      <point x="65.0" y="-401.0" type="line"/>
      <point x="376.0" y="-378.0"/>
      <point x="711.0" y="-167.0"/>
      <point x="711.0" y="-30.0" type="qcurve" smooth="yes"/>
      <point x="711.0" y="87.0"/>
      <point x="662.0" y="201.0"/>
      <point x="638.0" y="238.0" type="qcurve" smooth="yes"/>
      <point x="615.0" y="273.0"/>
      <point x="581.0" y="342.0"/>
      <point x="581.0" y="377.0" type="qcurve" smooth="yes"/>
      <point x="581.0" y="421.0"/>
      <point x="619.0" y="480.0"/>
    </contour>
  </outline>
</glyph>
<glyph name="bracketright" format="2">
  <advance width="858.0"/>
  <outline>
    <contour>
      <point x="642.0" y="-280.0" type="line"/>
      <point x="308.0" y="-280.0" type="line"/>
      <point x="308.0" y="1500.0" type="line"/>
      <point x="642.0" y="1500.0" type="line"/>
    </contour>
    <contour>
      <point x="-88.0" y="-280.0" type="line"/>
      <point x="-88.0" y="-40.0" type="line"/>
      <point x="449.0" y="-40.0" type="line"/>
      <point x="449.0" y="-280.0" type="line"/>
    </contour>
    <contour>
      <point x="-88.0" y="1260.0" type="line"/>
      <point x="-88.0" y="1500.0" type="line"/>
      <point x="454.0" y="1500.0" type="line"/>
      <point x="454.0" y="1260.0" type="line"/>
    </contour>
  </outline>
</glyph>
<glyph name="c" format="2">
  <advance width="1377.0"/>
  <outline>
    <contour>
      <point x="1375.0" y="392.0" type="line"/>
      <point x="1371.0" y="327.0" type="line" smooth="yes"/>
      <point x="1357.0" y="174.0"/>
      <point x="1045.0" y="-25.0"/>
      <point x="740.0" y="-25.0" type="qcurve" smooth="yes"/>
      <point x="732.0" y="-25.0" type="line" smooth="yes"/>
      <point x="403.0" y="-25.0"/>
      <point x="34.0" y="230.0"/>
      <point x="34.0" y="498.0" type="qcurve" smooth="yes"/>
      <point x="34.0" y="481.0" type="line" smooth="yes"/>
      <point x="34.0" y="734.0"/>
      <point x="412.0" y="1011.0"/>
      <point x="725.0" y="1011.0" type="qcurve" smooth="yes"/>
      <point x="732.0" y="1011.0" type="line" smooth="yes"/>
      <point x="1046.0" y="1011.0"/>
      <point x="1355.0" y="798.0"/>
      <point x="1367.0" y="636.0" type="qcurve" smooth="yes"/>
      <point x="1369.0" y="560.0" type="line"/>
      <point x="1064.0" y="561.0" type="line"/>
      <point x="1061.0" y="649.0" type="line" smooth="yes"/>
      <point x="1050.0" y="710.0"/>
      <point x="935.0" y="792.0"/>
      <point x="756.0" y="792.0" type="qcurve" smooth="yes"/>
      <point x="754.0" y="792.0" type="line" smooth="yes"/>
      <point x="550.0" y="792.0"/>
      <point x="402.0" y="687.0"/>
      <point x="402.0" y="580.0" type="qcurve" smooth="yes"/>
      <point x="402.0" y="412.0" type="line" smooth="yes"/>
      <point x="402.0" y="303.0"/>
      <point x="551.0" y="184.0"/>
      <point x="750.0" y="184.0" type="qcurve" smooth="yes"/>
      <point x="752.0" y="184.0" type="line" smooth="yes"/>
      <point x="922.0" y="184.0"/>
      <point x="1058.0" y="260.0"/>
      <point x="1070.0" y="330.0" type="qcurve" smooth="yes"/>
      <point x="1074.0" y="394.0" type="line"/>
    </contour>
  </outline>
</glyph>
<glyph name="comma" format="2">
  <advance width="847.0"/>
  <outline>
    <contour>
      <point x="92.0" y="-79.0" type="line"/>
      <point x="304.0" y="220.0" type="line" smooth="yes"/>
      <point x="329.0" y="253.0"/>
      <point x="403.0" y="334.0"/>
      <point x="464.0" y="334.0" type="qcurve" smooth="yes"/>
      <point x="475.0" y="334.0" type="line" smooth="yes"/>
      <point x="531.0" y="334.0"/>
      <point x="628.0" y="256.0"/>
      <point x="628.0" y="208.0" type="qcurve" smooth="yes"/>
      <point x="628.0" y="200.0" type="line" smooth="yes"/>
      <point x="628.0" y="161.0"/>
      <point x="290.0" y="-90.0"/>
      <point x="194.0" y="-164.0" type="qcurve"/>
    </contour>
  </outline>
</glyph>
<glyph name="d" format="2">
  <advance width="1537.0"/>
  <outline>
    <contour>
      <point x="1415.0" y="0.0" type="line"/>
      <point x="1069.0" y="0.0" type="line"/>
      <point x="1069.0" y="1500.0" type="line"/>
      <point x="1415.0" y="1500.0" type="line"/>
    </contour>
    <contour>
      <point x="1035.0" y="713.0" type="qcurve" smooth="yes"/>
      <point x="1035.0" y="229.0" type="line" smooth="yes"/>
      <point x="1035.0" y="37.0"/>
      <point x="758.0" y="-27.0"/>
      <point x="554.0" y="-27.0" type="qcurve" smooth="yes"/>
      <point x="545.0" y="-27.0" type="line" smooth="yes"/>
      <point x="303.0" y="-27.0"/>
      <point x="18.0" y="266.0"/>
      <point x="18.0" y="502.0" type="qcurve" smooth="yes"/>
      <point x="18.0" y="483.0" type="line" smooth="yes"/>
      <point x="18.0" y="717.0"/>
      <point x="306.0" y="1012.0"/>
      <point x="541.0" y="1012.0" type="qcurve" smooth="yes"/>
      <point x="551.0" y="1012.0" type="line" smooth="yes"/>
      <point x="758.0" y="1012.0"/>
      <point x="1035.0" y="936.0"/>
    </contour>
    <contour>
      <point x="1027.0" y="583.0" type="line" smooth="yes"/>
      <point x="1027.0" y="671.0"/>
      <point x="840.0" y="808.0"/>
      <point x="704.0" y="808.0" type="qcurve" smooth="yes"/>
      <point x="696.0" y="808.0" type="line" smooth="yes"/>
      <point x="546.0" y="808.0"/>
      <point x="350.0" y="697.0"/>
      <point x="350.0" y="575.0" type="qcurve" smooth="yes"/>
      <point x="350.0" y="403.0" type="line" smooth="yes"/>
      <point x="350.0" y="282.0"/>
      <point x="535.0" y="170.0"/>
      <point x="686.0" y="170.0" type="qcurve" smooth="yes"/>
      <point x="694.0" y="170.0" type="line" smooth="yes"/>
      <point x="820.0" y="170.0"/>
      <point x="1027.0" y="241.0"/>
      <point x="1027.0" y="376.0" type="qcurve" smooth="yes"/>
    </contour>
  </outline>
</glyph>
<glyph name="e" format="2">
  <advance width="1398.0"/>
  <outline>
    <contour>
      <point x="1341.0" y="329.0" type="line"/>
      <point x="1338.0" y="296.0" type="line" smooth="yes"/>
      <point x="1324.0" y="156.0"/>
      <point x="1002.0" y="-27.0"/>
      <point x="712.0" y="-27.0" type="qcurve" smooth="yes"/>
      <point x="701.0" y="-27.0" type="line" smooth="yes"/>
      <point x="430.0" y="-27.0"/>
      <point x="35.0" y="256.0"/>
      <point x="35.0" y="487.0" type="qcurve" smooth="yes"/>
      <point x="35.0" y="487.0" type="line" smooth="yes"/>
      <point x="35.0" y="729.0"/>
      <point x="429.0" y="1010.0"/>
      <point x="686.0" y="1010.0" type="qcurve" smooth="yes"/>
      <point x="708.0" y="1010.0" type="line" smooth="yes"/>
      <point x="1024.0" y="1010.0"/>
      <point x="1313.0" y="732.0"/>
      <point x="1339.0" y="510.0" type="qcurve" smooth="yes"/>
      <point x="1350.0" y="443.0" type="line"/>
      <point x="116.0" y="443.0" type="line"/>
      <point x="116.0" y="583.0" type="line"/>
      <point x="1051.0" y="583.0" type="line"/>
      <point x="1046.0" y="609.0" type="line" smooth="yes"/>
      <point x="1018.0" y="725.0"/>
      <point x="866.0" y="808.0"/>
      <point x="721.0" y="808.0" type="qcurve" smooth="yes"/>
      <point x="723.0" y="808.0" type="line" smooth="yes"/>
      <point x="582.0" y="808.0"/>
      <point x="390.0" y="681.0"/>
      <point x="390.0" y="562.0" type="qcurve" smooth="yes"/>
      <point x="390.0" y="411.0" type="line" smooth="yes"/>
      <point x="390.0" y="295.0"/>
      <point x="592.0" y="173.0"/>
      <point x="730.0" y="173.0" type="qcurve" smooth="yes"/>
      <point x="745.0" y="173.0" type="line" smooth="yes"/>
      <point x="879.0" y="173.0"/>
      <point x="1032.0" y="245.0"/>
      <point x="1061.0" y="312.0" type="qcurve" smooth="yes"/>
      <point x="1066.0" y="329.0" type="line"/>
    </contour>
  </outline>
</glyph>
<glyph name="eight" format="2">
  <advance width="1434.0"/>
  <outline>
    <contour>
      <point x="710.0" y="-28.0" type="line" smooth="yes"/>
      <point x="424.0" y="-28.0"/>
      <point x="8.0" y="223.0"/>
      <point x="8.0" y="439.0" type="qcurve" smooth="yes"/>
      <point x="8.0" y="437.0" type="line" smooth="yes"/>
      <point x="8.0" y="631.0"/>
      <point x="416.0" y="883.0"/>
      <point x="700.0" y="883.0" type="qcurve" smooth="yes"/>
      <point x="711.0" y="883.0" type="line" smooth="yes"/>
      <point x="1004.0" y="883.0"/>
      <point x="1426.0" y="631.0"/>
      <point x="1426.0" y="437.0" type="qcurve" smooth="yes"/>
      <point x="1426.0" y="441.0" type="line" smooth="yes"/>
      <point x="1426.0" y="223.0"/>
      <point x="1013.0" y="-28.0"/>
      <point x="719.0" y="-28.0" type="qcurve" smooth="yes"/>
    </contour>
    <contour>
      <point x="714.0" y="208.0" type="line" smooth="yes"/>
      <point x="895.0" y="208.0"/>
      <point x="1103.0" y="337.0"/>
      <point x="1103.0" y="446.0" type="qcurve" smooth="yes"/>
      <point x="1103.0" y="462.0" type="line" smooth="yes"/>
      <point x="1103.0" y="570.0"/>
      <point x="891.0" y="706.0"/>
      <point x="706.0" y="706.0" type="qcurve" smooth="yes"/>
      <point x="706.0" y="706.0" type="line" smooth="yes"/>
      <point x="524.0" y="706.0"/>
      <point x="319.0" y="570.0"/>
      <point x="319.0" y="462.0" type="qcurve" smooth="yes"/>
      <point x="319.0" y="446.0" type="line" smooth="yes"/>
      <point x="319.0" y="337.0"/>
      <point x="529.0" y="208.0"/>
      <point x="706.0" y="208.0" type="qcurve" smooth="yes"/>
    </contour>
    <contour>
      <point x="709.0" y="751.0" type="line" smooth="yes"/>
      <point x="467.0" y="751.0"/>
      <point x="114.0" y="953.0"/>
      <point x="114.0" y="1119.0" type="qcurve" smooth="yes"/>
      <point x="114.0" y="1130.0" type="line" smooth="yes"/>
      <point x="114.0" y="1301.0"/>
      <point x="462.0" y="1512.0"/>
      <point x="702.0" y="1512.0" type="qcurve" smooth="yes"/>
      <point x="712.0" y="1512.0" type="line" smooth="yes"/>
      <point x="961.0" y="1512.0"/>
      <point x="1324.0" y="1301.0"/>
      <point x="1324.0" y="1127.0" type="qcurve" smooth="yes"/>
      <point x="1324.0" y="1114.0" type="line" smooth="yes"/>
      <point x="1324.0" y="953.0"/>
      <point x="965.0" y="751.0"/>
      <point x="716.0" y="751.0" type="qcurve" smooth="yes"/>
    </contour>
    <contour>
      <point x="713.0" y="895.0" type="line" smooth="yes"/>
      <point x="861.0" y="895.0"/>
      <point x="1033.0" y="995.0"/>
      <point x="1033.0" y="1077.0" type="qcurve" smooth="yes"/>
      <point x="1033.0" y="1089.0" type="line" smooth="yes"/>
      <point x="1033.0" y="1170.0"/>
      <point x="865.0" y="1272.0"/>
      <point x="713.0" y="1272.0" type="qcurve" smooth="yes"/>
      <point x="709.0" y="1272.0" type="line" smooth="yes"/>
      <point x="568.0" y="1272.0"/>
      <point x="405.0" y="1170.0"/>
      <point x="405.0" y="1089.0" type="qcurve" smooth="yes"/>
      <point x="405.0" y="1077.0" type="line" smooth="yes"/>
      <point x="405.0" y="995.0"/>
      <point x="566.0" y="895.0"/>
      <point x="709.0" y="895.0" type="qcurve" smooth="yes"/>
    </contour>
  </outline>
</glyph>
<glyph name="equal" format="2">
  <advance width="1420.0"/>
  <outline>
    <contour>
      <point x="1366.0" y="280.0" type="line"/>
      <point x="60.0" y="280.0" type="line"/>
      <point x="60.0" y="565.0" type="line"/>
      <point x="1366.0" y="565.0" type="line"/>
    </contour>
    <contour>
      <point x="1367.0" y="750.0" type="line"/>
      <point x="60.0" y="750.0" type="line"/>
      <point x="60.0" y="1035.0" type="line"/>
      <point x="1367.0" y="1035.0" type="line"/>
    </contour>
  </outline>
</glyph>
<glyph name="exclam" format="2">
  <advance width="652.0"/>
  <outline>
    <contour>
      <point x="141.0" y="362.0" type="line"/>
      <point x="141.0" y="1500.0" type="line"/>
      <point x="511.0" y="1500.0" type="line"/>
      <point x="511.0" y="362.0" type="line"/>
    </contour>
    <contour>
      <point x="325.0" y="-39.0" type="line" smooth="yes"/>
      <point x="434.0" y="-39.0"/>
      <point x="547.0" y="66.0"/>
      <point x="547.0" y="151.0" type="qcurve" smooth="yes"/>
      <point x="547.0" y="164.0" type="line" smooth="yes"/>
      <point x="547.0" y="250.0"/>
      <point x="436.0" y="357.0"/>
      <point x="325.0" y="357.0" type="qcurve" smooth="yes"/>
      <point x="322.0" y="357.0" type="line" smooth="yes"/>
      <point x="217.0" y="357.0"/>
      <point x="109.0" y="250.0"/>
      <point x="109.0" y="164.0" type="qcurve" smooth="yes"/>
      <point x="109.0" y="151.0" type="line" smooth="yes"/>
      <point x="109.0" y="64.0"/>
      <point x="216.0" y="-39.0"/>
      <point x="322.0" y="-39.0" type="qcurve" smooth="yes"/>
    </contour>
  </outline>
</glyph>
<glyph name="f" format="2">
  <advance width="667.0"/>
  <outline>
    <contour>
      <point x="673.0" y="741.0" type="line"/>
      <point x="-20.0" y="741.0" type="line"/>
      <point x="-20.0" y="980.0" type="line"/>
      <point x="673.0" y="980.0" type="line"/>
    </contour>
    <contour>
      <point x="445.0" y="1198.0" type="qcurve" smooth="yes"/>
      <point x="445.0" y="0.0" type="line"/>
      <point x="91.0" y="0.0" type="line"/>
      <point x="91.0" y="1204.0" type="line" smooth="yes"/>
      <point x="91.0" y="1356.0"/>
      <point x="283.0" y="1553.0"/>
      <point x="439.0" y="1553.0" type="qcurve" smooth="yes"/>
      <point x="514.0" y="1553.0"/>
      <point x="673.0" y="1529.0"/>
      <point x="706.0" y="1509.0" type="qcurve"/>
      <point x="708.0" y="1331.0" type="line"/>
      <point x="688.0" y="1336.0"/>
      <point x="593.0" y="1342.0"/>
      <point x="559.0" y="1342.0" type="qcurve" smooth="yes"/>
      <point x="490.0" y="1342.0"/>
      <point x="445.0" y="1283.0"/>
    </contour>
  </outline>
</glyph>
<glyph name="five" format="2">
  <advance width="1332.0"/>
  <outline>
    <contour>
      <point x="743.0" y="1038.0" type="line" smooth="yes"/>
      <point x="1074.0" y="1038.0"/>
      <point x="1308.0" y="752.0"/>
      <point x="1308.0" y="516.0" type="qcurve" smooth="yes"/>
      <point x="1308.0" y="484.0" type="line" smooth="yes"/>
      <point x="1308.0" y="255.0"/>
      <point x="959.0" y="-26.0"/>
      <point x="670.0" y="-26.0" type="qcurve" smooth="yes"/>
      <point x="652.0" y="-26.0" type="line" smooth="yes"/>
      <point x="359.0" y="-26.0"/>
      <point x="46.0" y="194.0"/>
      <point x="32.0" y="352.0" type="qcurve" smooth="yes"/>
      <point x="27.0" y="464.0" type="line"/>
      <point x="367.0" y="464.0" type="line"/>
      <point x="367.0" y="372.0" type="line" smooth="yes"/>
      <point x="365.0" y="286.0"/>
      <point x="536.0" y="198.0"/>
      <point x="659.0" y="198.0" type="qcurve" smooth="yes"/>
      <point x="662.0" y="198.0" type="line" smooth="yes"/>
      <point x="780.0" y="198.0"/>
      <point x="972.0" y="308.0"/>
      <point x="972.0" y="426.0" type="qcurve" smooth="yes"/>
      <point x="972.0" y="611.0" type="line" smooth="yes"/>
      <point x="972.0" y="732.0"/>
      <point x="806.0" y="817.0"/>
      <point x="684.0" y="817.0" type="qcurve" smooth="yes"/>
      <point x="674.0" y="817.0" type="line" smooth="yes"/>
      <point x="592.0" y="817.0"/>
      <point x="412.0" y="719.0"/>
      <point x="396.0" y="660.0" type="qcurve"/>
      <point x="62.0" y="662.0" type="line"/>
      <point x="105.0" y="1500.0" type="line"/>
      <point x="1162.0" y="1500.0" type="line"/>
      <point x="1162.0" y="1238.0" type="line"/>
      <point x="327.0" y="1238.0" type="line"/>
      <point x="270.0" y="885.0" type="line"/>
      <point x="314.0" y="939.0"/>
      <point x="575.0" y="1038.0"/>
      <point x="715.0" y="1038.0" type="qcurve" smooth="yes"/>
    </contour>
  </outline>
</glyph>
<glyph name="i" format="2">
  <advance width="390.0"/>
  <outline>
    <contour>
      <point x="-60.0" y="0.0" type="line"/>
      <point x="-60.0" y="980.0" type="line"/>
      <point x="283.0" y="980.0" type="line"/>
      <point x="283.0" y="0.0" type="line"/>
    </contour>
    <contour>
      <point x="113.0" y="1080.0" type="line" smooth="yes"/>
      <point x="204.0" y="1080.0"/>
      <point x="305.0" y="1181.0"/>
      <point x="305.0" y="1264.0" type="qcurve" smooth="yes"/>
      <point x="305.0" y="1275.0" type="line" smooth="yes"/>
      <point x="305.0" y="1357.0"/>
      <point x="206.0" y="1461.0"/>
      <point x="113.0" y="1461.0" type="qcurve" smooth="yes"/>
      <point x="109.0" y="1461.0" type="line" smooth="yes"/>
      <point x="23.0" y="1461.0"/>
      <point x="-79.0" y="1357.0"/>
      <point x="-79.0" y="1275.0" type="qcurve" smooth="yes"/>
      <point x="-79.0" y="1264.0" type="line" smooth="yes"/>
      <point x="-79.0" y="1180.0"/>
      <point x="21.0" y="1080.0"/>
      <point x="109.0" y="1080.0" type="qcurve" smooth="yes"/>
    </contour>
    <contour>
      <point x="278.0" y="685.0" type="line"/>
      <point x="248.0" y="665.0" type="line"/>
      <point x="248.0" y="960.0" type="line"/>
      <point x="278.0" y="980.0" type="line"/>
    </contour>
  </outline>
</glyph>
<glyph name="j" format="2">
  <advance width="401.0"/>
  <outline>
    <contour>
      <point x="310.0" y="95.0" type="line" smooth="yes"/>
      <point x="310.0" y="-235.0"/>
      <point x="-36.0" y="-500.0"/>
      <point x="-298.0" y="-500.0" type="qcurve" smooth="yes"/>
      <point x="-368.0" y="-500.0"/>
      <point x="-472.0" y="-490.0"/>
      <point x="-508.0" y="-482.0" type="qcurve"/>
      <point x="-513.0" y="-212.0" type="line"/>
      <point x="-488.0" y="-217.0"/>
      <point x="-401.0" y="-231.0"/>
      <point x="-369.0" y="-231.0" type="qcurve" smooth="yes"/>
      <point x="-214.0" y="-231.0"/>
      <point x="-29.0" y="-43.0"/>
      <point x="-29.0" y="164.0" type="qcurve" smooth="yes"/>
      <point x="-29.0" y="980.0" type="line"/>
      <point x="310.0" y="980.0" type="line"/>
    </contour>
    <contour>
      <point x="144.0" y="1080.0" type="line" smooth="yes"/>
      <point x="235.0" y="1080.0"/>
      <point x="336.0" y="1181.0"/>
      <point x="336.0" y="1264.0" type="qcurve" smooth="yes"/>
      <point x="336.0" y="1275.0" type="line" smooth="yes"/>
      <point x="336.0" y="1357.0"/>
      <point x="237.0" y="1461.0"/>
      <point x="144.0" y="1461.0" type="qcurve" smooth="yes"/>
      <point x="140.0" y="1461.0" type="line" smooth="yes"/>
      <point x="54.0" y="1461.0"/>
      <point x="-48.0" y="1357.0"/>
      <point x="-48.0" y="1275.0" type="qcurve" smooth="yes"/>
      <point x="-48.0" y="1264.0" type="line" smooth="yes"/>
      <point x="-48.0" y="1180.0"/>
      <point x="52.0" y="1080.0"/>
      <point x="140.0" y="1080.0" type="qcurve" smooth="yes"/>
    </contour>
    <contour>
      <point x="313.0" y="685.0" type="line"/>
      <point x="283.0" y="665.0" type="line"/>
      <point x="283.0" y="960.0" type="line"/>
      <point x="313.0" y="980.0" type="line"/>
    </contour>
  </outline>
</glyph>
<glyph name="l" format="2">
  <advance width="359.0"/>
  <outline>
    <contour>
      <point x="122.0" y="82.0" type="qcurve" smooth="yes"/>
      <point x="122.0" y="1500.0" type="line"/>
      <point x="469.0" y="1500.0" type="line"/>
      <point x="469.0" y="0.0" type="line"/>
      <point x="208.0" y="0.0"/>
      <point x="122.0" y="-40.0"/>
    </contour>
    <contour>
      <point x="111.0" y="30.0" type="line"/>
      <point x="243.0" y="20.0" type="line"/>
      <point x="160.0" y="245.0" type="line"/>
      <point x="111.0" y="255.0" type="line"/>
    </contour>
  </outline>
</glyph>
<glyph name="n" format="2">
  <advance width="1364.0"/>
  <outline>
    <contour>
      <point x="122.0" y="0.0" type="line"/>
      <point x="122.0" y="980.0" type="line"/>
      <point x="468.0" y="980.0" type="line"/>
      <point x="468.0" y="0.0" type="line"/>
    </contour>
    <contour>
      <point x="373.0" y="639.0" type="line"/>
      <point x="354.0" y="738.0"/>
      <point x="584.0" y="1012.0"/>
      <point x="798.0" y="1012.0" type="qcurve" smooth="yes"/>
      <point x="1021.0" y="1012.0"/>
      <point x="1261.0" y="745.0"/>
      <point x="1261.0" y="537.0" type="qcurve" smooth="yes"/>
      <point x="1261.0" y="0.0" type="line"/>
      <point x="915.0" y="0.0" type="line"/>
      <point x="915.0" y="535.0" type="line" smooth="yes"/>
      <point x="915.0" y="654.0"/>
      <point x="764.0" y="747.0"/>
      <point x="660.0" y="747.0" type="qcurve" smooth="yes"/>
      <point x="586.0" y="747.0"/>
      <point x="424.0" y="693.0"/>
      <point x="377.0" y="604.0" type="qcurve"/>
    </contour>
  </outline>
</glyph>
<glyph name="o" format="2">
  <advance width="1482.0"/>
  <outline>
    <contour>
      <point x="734.0" y="-26.0" type="line" smooth="yes"/>
      <point x="419.0" y="-26.0"/>
      <point x="34.0" y="246.0"/>
      <point x="34.0" y="486.0" type="qcurve" smooth="yes"/>
      <point x="34.0" y="478.0" type="line" smooth="yes"/>
      <point x="34.0" y="724.0"/>
      <point x="423.0" y="1012.0"/>
      <point x="730.0" y="1012.0" type="qcurve" smooth="yes"/>
      <point x="736.0" y="1012.0" type="line" smooth="yes"/>
      <point x="1061.0" y="1012.0"/>
      <point x="1449.0" y="726.0"/>
      <point x="1449.0" y="481.0" type="qcurve" smooth="yes"/>
      <point x="1449.0" y="494.0" type="line" smooth="yes"/>
      <point x="1449.0" y="247.0"/>
      <point x="1057.0" y="-26.0"/>
      <point x="740.0" y="-26.0" type="qcurve" smooth="yes"/>
    </contour>
    <contour>
      <point x="743.0" y="181.0" type="line" smooth="yes"/>
      <point x="915.0" y="181.0"/>
      <point x="1096.0" y="296.0"/>
      <point x="1096.0" y="412.0" type="qcurve" smooth="yes"/>
      <point x="1096.0" y="575.0" type="line" smooth="yes"/>
      <point x="1096.0" y="684.0"/>
      <point x="924.0" y="806.0"/>
      <point x="743.0" y="806.0" type="qcurve" smooth="yes"/>
      <point x="741.0" y="806.0" type="line" smooth="yes"/>
      <point x="548.0" y="806.0"/>
      <point x="394.0" y="693.0"/>
      <point x="394.0" y="576.0" type="qcurve" smooth="yes"/>
      <point x="394.0" y="414.0" type="line" smooth="yes"/>
      <point x="394.0" y="297.0"/>
      <point x="563.0" y="181.0"/>
      <point x="741.0" y="181.0" type="qcurve" smooth="yes"/>
    </contour>
  </outline>
</glyph>
<glyph name="percent" format="2">
  <advance width="2163.0"/>
  <outline>
    <contour>
      <point x="519.0" y="666.0" type="line" smooth="yes"/>
      <point x="278.0" y="666.0"/>
      <point x="-3.0" y="885.0"/>
      <point x="-3.0" y="1078.0" type="qcurve" smooth="yes"/>
      <point x="-3.0" y="1105.0" type="line" smooth="yes"/>
      <point x="-3.0" y="1297.0"/>
      <point x="284.0" y="1526.0"/>
      <point x="517.0" y="1526.0" type="qcurve" smooth="yes"/>
      <point x="522.0" y="1526.0" type="line" smooth="yes"/>
      <point x="768.0" y="1526.0"/>
      <point x="1056.0" y="1297.0"/>
      <point x="1056.0" y="1105.0" type="qcurve" smooth="yes"/>
      <point x="1056.0" y="1078.0" type="line" smooth="yes"/>
      <point x="1056.0" y="885.0"/>
      <point x="765.0" y="666.0"/>
      <point x="526.0" y="666.0" type="qcurve" smooth="yes"/>
    </contour>
    <contour>
      <point x="526.0" y="936.0" type="line" smooth="yes"/>
      <point x="629.0" y="936.0"/>
      <point x="737.0" y="1012.0"/>
      <point x="737.0" y="1081.0" type="qcurve" smooth="yes"/>
      <point x="737.0" y="1092.0" type="line" smooth="yes"/>
      <point x="737.0" y="1162.0"/>
      <point x="631.0" y="1240.0"/>
      <point x="526.0" y="1240.0" type="qcurve" smooth="yes"/>
      <point x="523.0" y="1240.0" type="line" smooth="yes"/>
      <point x="421.0" y="1240.0"/>
      <point x="316.0" y="1162.0"/>
      <point x="316.0" y="1092.0" type="qcurve" smooth="yes"/>
      <point x="316.0" y="1081.0" type="line" smooth="yes"/>
      <point x="316.0" y="1012.0"/>
      <point x="420.0" y="936.0"/>
      <point x="523.0" y="936.0" type="qcurve" smooth="yes"/>
    </contour>
    <contour>
      <point x="1629.0" y="-25.0" type="line" smooth="yes"/>
      <point x="1388.0" y="-25.0"/>
      <point x="1107.0" y="194.0"/>
      <point x="1107.0" y="387.0" type="qcurve" smooth="yes"/>
      <point x="1107.0" y="414.0" type="line" smooth="yes"/>
      <point x="1107.0" y="606.0"/>
      <point x="1394.0" y="835.0"/>
      <point x="1627.0" y="835.0" type="qcurve" smooth="yes"/>
      <point x="1632.0" y="835.0" type="line" smooth="yes"/>
      <point x="1878.0" y="835.0"/>
      <point x="2166.0" y="606.0"/>
      <point x="2166.0" y="414.0" type="qcurve" smooth="yes"/>
      <point x="2166.0" y="387.0" type="line" smooth="yes"/>
      <point x="2166.0" y="194.0"/>
      <point x="1875.0" y="-25.0"/>
      <point x="1636.0" y="-25.0" type="qcurve" smooth="yes"/>
    </contour>
    <contour>
      <point x="1636.0" y="231.0" type="line" smooth="yes"/>
      <point x="1739.0" y="231.0"/>
      <point x="1847.0" y="307.0"/>
      <point x="1847.0" y="376.0" type="qcurve" smooth="yes"/>
      <point x="1847.0" y="387.0" type="line" smooth="yes"/>
      <point x="1847.0" y="457.0"/>
      <point x="1741.0" y="535.0"/>
      <point x="1636.0" y="535.0" type="qcurve" smooth="yes"/>
      <point x="1633.0" y="535.0" type="line" smooth="yes"/>
      <point x="1531.0" y="535.0"/>
      <point x="1426.0" y="457.0"/>
      <point x="1426.0" y="387.0" type="qcurve" smooth="yes"/>
      <point x="1426.0" y="376.0" type="line" smooth="yes"/>
      <point x="1426.0" y="307.0"/>
      <point x="1530.0" y="231.0"/>
      <point x="1633.0" y="231.0" type="qcurve" smooth="yes"/>
    </contour>
    <contour>
      <point x="470.0" y="0.0" type="line"/>
      <point x="1440.0" y="1500.0" type="line"/>
      <point x="1660.0" y="1500.0" type="line"/>
      <point x="700.0" y="0.0" type="line"/>
    </contour>
  </outline>
</glyph>
<glyph name="plus" format="2">
  <advance width="1420.0"/>
  <outline>
    <contour>
      <point x="1482.0" y="592.0" type="line"/>
      <point x="-46.0" y="602.0" type="line"/>
      <point x="-46.0" y="947.0" type="line"/>
      <point x="1482.0" y="937.0" type="line"/>
    </contour>
    <contour>
      <point x="891.0" y="1472.0" type="line"/>
      <point x="891.0" y="52.0" type="line"/>
      <point x="538.0" y="52.0" type="line"/>
      <point x="538.0" y="1472.0" type="line"/>
    </contour>
  </outline>
</glyph>
<glyph name="q" format="2">
  <advance width="1539.0"/>
  <outline>
    <contour>
      <point x="1417.0" y="-500.0" type="line"/>
      <point x="1071.0" y="-500.0" type="line"/>
      <point x="1071.0" y="980.0" type="line"/>
      <point x="1417.0" y="980.0" type="line"/>
    </contour>
    <contour>
      <point x="1038.0" y="713.0" type="qcurve" smooth="yes"/>
      <point x="1038.0" y="229.0" type="line" smooth="yes"/>
      <point x="1038.0" y="77.0"/>
      <point x="758.0" y="-27.0"/>
      <point x="555.0" y="-27.0" type="qcurve" smooth="yes"/>
      <point x="545.0" y="-27.0" type="line" smooth="yes"/>
      <point x="303.0" y="-27.0"/>
      <point x="18.0" y="266.0"/>
      <point x="18.0" y="493.0" type="qcurve" smooth="yes"/>
      <point x="18.0" y="496.0" type="line" smooth="yes"/>
      <point x="18.0" y="717.0"/>
      <point x="306.0" y="1012.0"/>
      <point x="541.0" y="1012.0" type="qcurve" smooth="yes"/>
      <point x="551.0" y="1012.0" type="line" smooth="yes"/>
      <point x="758.0" y="1012.0"/>
      <point x="1038.0" y="906.0"/>
    </contour>
    <contour>
      <point x="1030.0" y="583.0" type="line" smooth="yes"/>
      <point x="1030.0" y="681.0"/>
      <point x="842.0" y="808.0"/>
      <point x="705.0" y="808.0" type="qcurve" smooth="yes"/>
      <point x="697.0" y="808.0" type="line" smooth="yes"/>
      <point x="546.0" y="808.0"/>
      <point x="350.0" y="697.0"/>
      <point x="350.0" y="583.0" type="qcurve" smooth="yes"/>
      <point x="350.0" y="396.0" type="line" smooth="yes"/>
      <point x="350.0" y="282.0"/>
      <point x="536.0" y="170.0"/>
      <point x="687.0" y="170.0" type="qcurve" smooth="yes"/>
      <point x="695.0" y="170.0" type="line" smooth="yes"/>
      <point x="822.0" y="170.0"/>
      <point x="1030.0" y="251.0"/>
      <point x="1030.0" y="376.0" type="qcurve" smooth="yes"/>
    </contour>
  </outline>
</glyph>
<glyph name="quotedbl" format="2">
  <advance width="934.0"/>
  <outline>
    <contour>
      <point x="84.0" y="852.0" type="line"/>
      <point x="84.0" y="1500.0" type="line"/>
      <point x="417.0" y="1500.0" type="line"/>
      <point x="417.0" y="852.0" type="line"/>
    </contour>
    <contour>
      <point x="517.0" y="852.0" type="line"/>
      <point x="517.0" y="1500.0" type="line"/>
      <point x="850.0" y="1500.0" type="line"/>
      <point x="850.0" y="852.0" type="line"/>
    </contour>
  </outline>
</glyph>
<glyph name="quotesingle" format="2">
  <advance width="555.0"/>
  <outline>
    <contour>
      <point x="111.0" y="862.0" type="line"/>
      <point x="111.0" y="1500.0" type="line"/>
      <point x="444.0" y="1500.0" type="line"/>
      <point x="444.0" y="862.0" type="line"/>
    </contour>
  </outline>
</glyph>
<glyph name="semicolon" format="2">
  <advance width="847.0"/>
  <outline>
    <contour>
      <point x="428.0" y="697.0" type="line" smooth="yes"/>
      <point x="518.0" y="697.0"/>
      <point x="620.0" y="795.0"/>
      <point x="620.0" y="875.0" type="qcurve" smooth="yes"/>
      <point x="620.0" y="886.0" type="line" smooth="yes"/>
      <point x="620.0" y="966.0"/>
      <point x="520.0" y="1066.0"/>
      <point x="428.0" y="1066.0" type="qcurve" smooth="yes"/>
      <point x="425.0" y="1066.0" type="line" smooth="yes"/>
      <point x="340.0" y="1066.0"/>
      <point x="243.0" y="966.0"/>
      <point x="243.0" y="886.0" type="qcurve" smooth="yes"/>
      <point x="243.0" y="875.0" type="line" smooth="yes"/>
      <point x="243.0" y="794.0"/>
      <point x="338.0" y="697.0"/>
      <point x="425.0" y="697.0" type="qcurve" smooth="yes"/>
    </contour>
    <contour>
      <point x="57.0" y="-79.0" type="line"/>
      <point x="251.0" y="220.0" type="line" smooth="yes"/>
      <point x="274.0" y="253.0"/>
      <point x="368.0" y="334.0"/>
      <point x="429.0" y="334.0" type="qcurve" smooth="yes"/>
      <point x="440.0" y="334.0" type="line" smooth="yes"/>
      <point x="510.0" y="334.0"/>
      <point x="611.0" y="238.0"/>
      <point x="611.0" y="190.0" type="qcurve" smooth="yes"/>
      <point x="611.0" y="182.0" type="line" smooth="yes"/>
      <point x="611.0" y="143.0"/>
      <point x="269.0" y="-90.0"/>
      <point x="159.0" y="-164.0" type="qcurve"/>
    </contour>
  </outline>
</glyph>
<glyph name="v" format="2">
  <advance width="1196.0"/>
  <outline>
    <contour>
      <point x="424.0" y="0.0" type="line"/>
      <point x="-80.0" y="980.0" type="line"/>
      <point x="258.0" y="980.0" type="line"/>
      <point x="604.0" y="379.0" type="line"/>
      <point x="931.0" y="980.0" type="line"/>
      <point x="1276.0" y="980.0" type="line"/>
      <point x="772.0" y="0.0" type="line"/>
    </contour>
  </outline>
</glyph>
<glyph name="x" format="2">
  <advance width="1160.0"/>
  <outline>
    <contour>
      <point x="-50.0" y="0.0" type="line"/>
      <point x="856.0" y="980.0" type="line"/>
      <point x="1170.0" y="980.0" type="line"/>
      <point x="264.0" y="0.0" type="line"/>
    </contour>
    <contour>
      <point x="854.0" y="0.0" type="line"/>
      <point x="-29.0" y="980.0" type="line"/>
      <point x="316.0" y="980.0" type="line"/>
      <point x="1210.0" y="0.0" type="line"/>
    </contour>
  </outline>
</glyph>
